<?xml version="1.0" encoding="utf-8"?>
<svg viewBox="0 0 1167.835 304.33" xmlns="http://www.w3.org/2000/svg">
  <radialGradient id="python-original-c" cx="1825.678" cy="444.45" r="26.743" gradientTransform="matrix(0, -0.112989, -0.502568, 0, 422.581223, 273.116036)" gradientUnits="userSpaceOnUse">
    <stop offset="0" stop-color="#B8B8B8" stop-opacity=".498"/>
    <stop offset="1" stop-color="#7F7F7F" stop-opacity="0"/>
  </radialGradient>
  <linearGradient id="python-original-a" gradientUnits="userSpaceOnUse" x1="70.252" y1="1237.476" x2="170.659" y2="1151.089" gradientTransform="matrix(0.191093, 0, 0, -0.189283, 181.391571, 253.94499)">
    <stop offset="0" stop-color="#5A9FD4"/>
    <stop offset="1" stop-color="#306998"/>
  </linearGradient>
  <linearGradient id="python-original-b" gradientUnits="userSpaceOnUse" x1="209.474" y1="1098.811" x2="173.62" y2="1149.537" gradientTransform="matrix(0.191093, 0, 0, -0.189376, 181.391571, 254.62526)">
    <stop offset="0" stop-color="#FFD43B"/>
    <stop offset="1" stop-color="#FFE873"/>
  </linearGradient>
  <radialGradient id="gradient-1" cx="1825.678" cy="444.45" r="26.743" gradientTransform="matrix(0, -0.085151, -0.358087, 0, 372.210999, 208.212921)" gradientUnits="userSpaceOnUse">
    <stop offset="0" stop-color="#B8B8B8" stop-opacity=".498"/>
    <stop offset="1" stop-color="#7F7F7F" stop-opacity="0"/>
  </radialGradient>
  <path fill="#f2d984" fill-opacity="1" d="M0,96L48,133.3C96,171,192,245,288,256C384,267,480,213,576,208C672,203,768,245,864,256C960,267,1056,245,1152,234.7C1248,224,1344,224,1392,224L1440,224L1440,0L1392,0C1344,0,1248,0,1152,0C1056,0,960,0,864,0C768,0,672,0,576,0C480,0,384,0,288,0C192,0,96,0,48,0L0,0Z"/>
  <text style="fill: rgb(23, 21, 21); fill-opacity: 0.95; font-family: &quot;Franklin Gothic&quot;; font-size: 51px; font-weight: 700; letter-spacing: 1.1px; word-spacing: 12.6px; white-space: pre; opacity: 0.9;" x="524.578" y="89.517">Olá, Sou Vitor Maverick</text>
  <text style="fill: rgb(23, 21, 21); fill-opacity: 0.79; font-family: &quot;Franklin Gothic&quot;; font-size: 28px; font-weight: 700; letter-spacing: 0.6px; word-spacing: 3.2px; white-space: pre;" x="434.093" y="141.567">Estudande e entusiasta de Engenharia de Software</text>
  <path fill="#EA2D2E" d="M 48.058 41.042 C 41.074 42.826 52.308 46.512 61.201 43.028 C 59.746 42.511 58.701 41.913 58.701 41.913 C 54.735 42.598 52.895 42.653 49.294 42.277 C 46.323 41.965 48.058 41.042 48.058 41.042 Z M 60.137 37.562 C 54.88 38.485 51.844 38.458 47.998 38.095 C 45.024 37.812 46.971 36.495 46.971 36.495 C 39.279 38.83 51.254 41.479 62.005 38.604 C 60.862 38.235 60.137 37.562 60.137 37.562 Z M 64.257 17.411 C 64.257 17.411 48.705 20.96 56.132 28.784 C 58.325 31.09 55.557 33.165 55.557 33.165 C 55.557 33.165 61.121 30.539 58.567 27.25 C 56.18 24.185 54.35 22.662 64.257 17.411 Z M 67.895 44.404 C 67.895 44.404 69.18 45.373 66.48 46.12 C 61.348 47.542 45.114 47.972 40.605 46.178 C 38.987 45.533 42.025 44.64 42.981 44.451 C 43.977 44.253 44.546 44.29 44.546 44.29 C 42.745 43.13 32.897 46.567 39.545 47.555 C 57.678 50.242 72.598 46.345 67.895 44.404 Z M 61.664 34.314 C 62.535 33.77 63.739 33.297 63.739 33.297 C 63.739 33.297 60.308 33.858 56.891 34.121 C 52.709 34.441 48.222 34.505 45.969 34.229 C 40.637 33.577 48.893 31.786 48.893 31.786 C 48.893 31.786 45.686 31.586 41.743 33.33 C 37.082 35.39 53.277 36.33 61.664 34.314 Z M 63.705 39.353 C 63.665 39.448 63.535 39.558 63.535 39.558 C 74.916 36.822 70.732 29.916 65.29 31.663 C 64.812 31.818 64.562 32.177 64.562 32.177 C 64.562 32.177 64.864 32.065 65.536 31.938 C 68.287 31.413 72.229 35.305 63.705 39.353 Z M 54.086 31.711 C 52.407 28.239 46.714 25.205 54.088 19.879 C 63.287 13.243 58.567 8.926 58.567 8.926 C 60.47 15.783 51.851 17.855 48.741 22.123 C 46.623 25.033 49.781 28.16 54.086 31.711 Z M 64.013 48.926 C 57.03 50.127 48.416 49.988 43.309 49.216 C 43.309 49.216 44.356 50.008 49.731 50.325 C 57.911 50.802 70.476 50.059 70.773 46.519 C 70.773 46.519 70.202 47.861 64.013 48.926 Z" style=""/>
  <path fill="#02303A" d="M 360.711 48.72 L 355.625 48.72 C 355.446 48.72 355.338 48.658 355.231 48.564 C 354.085 47.307 352.831 46.144 351.327 45.233 C 350.575 44.762 349.787 44.353 348.892 44.134 C 348.176 43.945 347.423 43.852 346.672 44.009 C 345.92 44.165 345.275 44.543 344.738 45.013 C 344.057 45.61 343.592 46.333 343.234 47.119 C 343.019 47.59 342.839 48.062 342.661 48.533 C 342.625 48.594 342.625 48.658 342.589 48.72 L 338.507 48.72 C 338.471 48.533 338.435 48.344 338.399 48.123 C 338.256 47.495 338.041 46.867 337.683 46.302 C 337.433 45.862 337.11 45.485 336.68 45.17 C 336.215 44.824 335.677 44.637 335.069 44.637 C 334.603 44.637 334.209 44.794 333.815 45.013 C 333.278 45.327 332.848 45.737 332.526 46.208 C 332.024 46.898 331.738 47.683 331.488 48.469 C 331.452 48.533 331.452 48.627 331.416 48.72 L 326.08 48.72 C 326.044 48.501 326.009 48.25 325.973 48.03 C 325.793 46.552 325.685 45.076 325.722 43.6 C 325.758 41.871 325.973 40.175 326.438 38.479 C 326.868 36.939 327.477 35.494 328.408 34.174 C 329.697 32.385 331.416 31.096 333.673 30.311 C 333.744 30.279 333.78 30.279 333.851 30.248 L 333.923 30.248 L 334.031 30.436 C 334.674 31.693 335.356 32.917 336.179 34.049 C 336.68 34.771 337.397 35.306 338.292 35.557 C 339.259 35.84 340.19 35.746 341.121 35.4 C 341.945 35.085 342.625 34.614 343.27 34.081 C 344.023 33.453 344.631 32.761 345.24 32.006 C 345.275 31.975 345.275 31.943 345.275 31.914 C 345.203 31.975 345.133 32.039 345.024 32.102 C 344.13 32.886 343.162 33.578 342.052 34.111 C 341.514 34.395 340.906 34.614 340.298 34.71 C 339.402 34.866 338.578 34.771 337.862 34.206 C 337.576 33.986 337.36 33.735 337.146 33.484 C 336.072 32.006 335.141 30.467 334.282 28.896 C 334.101 28.582 333.959 28.268 333.923 27.892 C 333.851 27.357 334.031 26.886 334.46 26.478 C 334.782 26.195 335.141 25.975 335.57 25.786 C 336.359 25.44 337.182 25.19 338.005 24.938 C 339.222 24.593 340.476 24.342 341.766 24.185 C 343.234 23.996 344.738 23.964 346.242 24.122 C 349.465 24.404 352.33 25.44 354.944 27.106 C 355.84 27.671 356.771 28.143 357.845 28.426 C 362.106 29.619 365.509 27.043 366.297 24.404 C 366.511 23.682 366.584 22.959 366.26 22.269 C 365.795 21.2 364.972 20.383 363.647 20.069 C 362.644 19.848 361.677 19.944 360.746 20.383 C 360.567 20.476 360.387 20.54 360.209 20.603 C 359.778 20.729 359.493 20.634 359.278 20.289 C 358.991 19.848 358.776 19.409 358.525 18.937 C 358.418 18.75 358.454 18.591 358.561 18.435 C 358.669 18.216 358.847 18.058 359.062 17.901 C 359.6 17.524 360.245 17.272 360.96 17.148 C 362.715 16.801 364.363 17.022 365.938 17.712 C 367.192 18.247 368.159 19.063 368.875 20.132 C 369.556 21.137 370.021 22.205 370.236 23.368 C 370.379 24.279 370.379 25.157 370.272 26.069 C 370.057 27.64 369.556 29.118 368.839 30.561 C 367.909 32.446 366.834 34.27 365.509 35.965 C 364.864 36.782 364.184 37.567 363.539 38.353 C 362.859 39.201 362.179 40.049 361.677 40.992 C 360.996 42.217 360.603 43.473 360.46 44.824 C 360.352 45.987 360.423 47.119 360.638 48.281 C 360.674 48.469 360.711 48.594 360.711 48.72 Z M 357.773 32.572 C 357.881 33.327 357.594 33.828 356.807 34.111 C 356.234 34.3 355.517 34.143 355.159 33.703 C 354.585 33.044 354.766 32.446 355.41 31.881 C 354.766 31.693 354.121 31.504 353.512 31.347 C 353.368 31.661 353.298 32.133 353.333 32.51 C 353.405 33.263 353.726 33.892 354.443 34.3 C 355.195 34.741 356.054 34.929 356.95 34.771 C 357.881 34.614 358.598 34.143 359.098 33.453 C 359.206 33.327 359.278 33.2 359.278 33.013 C 358.776 32.886 358.274 32.729 357.773 32.572 Z" style=""/>
  <path d="M 89.808 15.473 L 89.808 48.576 L 128.536 48.576 L 128.536 15.473 L 89.808 15.473 Z M 110.293 43.68 C 109.721 44.675 108.63 45.325 107.366 45.641 C 105.422 46.021 103.564 45.804 102.182 45.095 C 101.257 44.611 100.534 43.863 100.044 43.003 L 102.993 41.46 C 103.019 41.467 103.096 41.587 103.2 41.742 C 103.576 42.281 103.9 42.662 104.538 42.93 C 105.165 43.113 106.54 43.229 107.071 42.287 C 107.396 41.809 107.292 40.268 107.292 38.562 C 107.292 35.884 107.307 33.216 107.307 30.567 L 110.935 30.567 C 110.935 33.482 110.952 36.239 110.935 39.081 C 110.942 40.824 111.119 42.378 110.293 43.68 Z M 125.343 42.805 C 124.081 46.491 117.051 46.61 114.241 44.175 C 113.648 43.603 113.275 43.302 112.922 42.64 C 114.415 41.906 114.415 41.906 115.867 41.187 C 116.657 42.224 117.386 42.795 118.698 43.028 C 120.48 43.214 122.272 42.692 121.869 41.074 C 121.456 39.752 118.223 39.432 116.023 38.021 C 113.788 36.738 113.264 33.622 115.1 31.84 C 115.712 31.182 116.756 30.69 117.851 30.454 L 118.993 30.327 C 121.187 30.289 122.558 30.785 123.565 31.747 C 123.846 31.989 124.074 32.25 124.501 32.818 C 123.333 33.453 123.336 33.447 121.663 34.374 C 121.305 33.716 120.711 33.303 120.085 33.123 C 119.111 32.871 117.884 33.147 117.629 34.025 C 117.541 34.296 117.558 34.547 117.699 34.995 C 118.094 35.764 119.417 36.098 120.604 36.565 C 124.022 37.749 125.176 39.019 125.46 40.531 C 125.733 41.834 125.394 42.679 125.343 42.805 Z" style="fill: rgb(255, 255, 255);" transform="matrix(0.999985, 0.005566, -0.005566, 0.999985, 0.179939, -0.607155)"/>
  <path opacity=".444" fill="url(#python-original-c)" d="M 215.042 66.921 C 215.042 68.589 207.984 69.941 199.278 69.941 C 190.572 69.941 183.514 68.589 183.514 66.921 C 183.514 65.252 190.572 63.899 199.278 63.899 C 207.984 63.899 215.042 65.252 215.042 66.921 Z" style=""/>
  <path fill="#E44D26" d="M 427.558 22.19 L 430.467 48.022 L 443.516 50.803 L 456.602 48.074 L 459.512 22.19 L 427.558 22.19 Z M 453.464 28.071 L 453.281 29.747 L 453.202 30.521 L 437.893 30.521 L 438.259 33.969 L 452.837 33.969 L 452.74 34.61 L 451.799 42.914 L 451.731 43.4 L 443.535 45.162 L 443.535 45.161 L 443.526 45.164 L 435.335 43.464 L 434.779 38.565 L 438.795 38.565 L 439.08 40.995 L 443.533 41.897 L 443.535 41.83 L 443.535 41.833 L 447.999 41.073 L 448.465 37.128 L 434.6 37.128 L 433.617 28.271 L 433.521 27.361 L 453.56 27.361 L 453.464 28.071 Z M 430.574 14.901 L 432.596 14.901 L 432.596 16.498 L 434.445 16.498 L 434.445 14.901 L 436.467 14.901 L 436.467 19.734 L 434.445 19.734 L 434.445 18.116 L 432.596 18.116 L 432.596 19.734 L 430.574 19.734 L 430.574 14.901 Z M 439.126 16.504 L 437.346 16.504 L 437.346 14.901 L 442.929 14.901 L 442.929 16.504 L 441.148 16.504 L 441.148 19.734 L 439.126 19.734 L 439.126 16.504 Z M 443.815 14.901 L 445.923 14.901 L 447.22 16.6 L 448.515 14.901 L 450.625 14.901 L 450.625 19.734 L 448.611 19.734 L 448.611 17.339 L 447.22 19.057 L 447.185 19.057 L 445.792 17.339 L 445.792 19.734 L 443.815 19.734 L 443.815 14.901 Z M 451.631 14.901 L 453.654 14.901 L 453.654 18.136 L 456.496 18.136 L 456.496 19.734 L 451.631 19.734 L 451.631 14.901 Z" style=""/>
  <path data-name="original" d="M 144.335 33.264 L 144.335 50.816 L 183.562 50.816 L 183.562 15.712 L 144.335 15.712 Z M 175.946 31.86 C 176.885 32.055 177.739 32.494 178.4 33.124 C 178.763 33.462 179.08 33.84 179.341 34.246 C 179.341 34.292 177.646 35.317 176.614 35.89 C 176.576 35.912 176.426 35.766 176.26 35.544 C 175.876 34.953 175.181 34.578 174.417 34.553 C 173.228 34.479 172.462 35.039 172.468 35.957 C 172.459 36.186 172.517 36.412 172.638 36.614 C 172.898 37.1 173.385 37.389 174.91 37.979 C 177.719 39.061 178.921 39.773 179.667 40.788 C 180.502 41.911 180.687 43.725 180.122 45.067 C 179.495 46.527 177.957 47.518 175.783 47.847 C 174.789 47.949 173.786 47.94 172.795 47.819 C 171.276 47.595 169.878 46.943 168.803 45.957 C 168.442 45.601 167.739 44.671 167.783 44.603 C 167.898 44.528 168.018 44.459 168.144 44.398 L 169.598 43.679 L 170.723 43.096 L 170.959 43.408 C 171.356 43.916 171.862 44.348 172.447 44.682 C 173.701 45.272 175.415 45.19 176.262 44.509 C 176.85 43.992 176.941 43.175 176.479 42.565 C 176.165 42.176 175.537 41.846 173.783 41.161 C 171.759 40.38 170.887 39.897 170.09 39.128 C 169.592 38.62 169.224 38.021 169.013 37.373 C 168.856 36.632 168.833 35.873 168.944 35.126 C 169.362 33.377 170.827 32.154 172.967 31.791 C 173.958 31.683 174.962 31.706 175.946 31.865 Z M 166.738 33.331 L 166.738 34.77 L 161.645 34.77 L 161.645 47.752 L 158.033 47.752 L 158.033 34.767 L 152.928 34.767 L 152.928 33.362 C 152.911 32.878 152.924 32.393 152.965 31.911 C 152.99 31.885 156.103 31.885 159.869 31.885 L 166.719 31.885 Z" fill="#007acc" style=""/>
  <path fill="url(#python-original-a)" d="M 212.824 18.733 C 211.391 18.74 210.023 18.86 208.819 19.068 C 205.271 19.684 204.628 20.971 204.628 23.347 L 204.628 26.482 L 213.009 26.482 L 213.009 27.528 L 201.482 27.528 C 199.047 27.528 196.914 28.965 196.246 31.7 C 195.477 34.835 195.442 36.79 196.246 40.063 C 196.842 42.5 198.265 44.236 200.701 44.236 L 203.583 44.236 L 203.583 40.476 C 203.583 37.759 205.976 35.364 208.819 35.364 L 217.191 35.364 C 219.521 35.364 221.381 33.48 221.381 31.182 L 221.381 23.347 C 221.381 21.116 219.465 19.441 217.191 19.068 C 215.75 18.833 214.257 18.726 212.824 18.733 Z M 208.29 21.255 C 209.157 21.255 209.863 21.96 209.863 22.829 C 209.863 23.692 209.157 24.392 208.29 24.392 C 207.422 24.392 206.718 23.692 206.718 22.829 C 206.718 21.96 207.422 21.255 208.29 21.255 Z" style=""/>
  <path fill="url(#python-original-b)" d="M 222.426 28.097 L 222.426 31.752 C 222.426 34.587 219.979 36.973 217.19 36.973 L 208.819 36.973 C 206.525 36.973 204.628 38.9 204.628 41.156 L 204.628 48.996 C 204.628 51.227 206.603 52.54 208.819 53.18 C 211.471 53.946 214.016 54.084 217.19 53.18 C 219.3 52.579 221.38 51.372 221.38 48.996 L 221.38 45.858 L 213.009 45.858 L 213.009 44.813 L 225.572 44.813 C 228.008 44.813 228.916 43.143 229.763 40.638 C 230.638 38.059 230.6 35.579 229.763 32.271 C 229.16 29.889 228.011 28.096 225.572 28.096 L 222.426 28.096 Z M 217.717 47.95 C 218.586 47.95 219.29 48.648 219.29 49.514 C 219.29 50.381 218.586 51.087 217.717 51.087 C 216.852 51.087 216.145 50.381 216.145 49.514 C 216.145 48.648 216.852 47.95 217.717 47.95 Z" style=""/>
  <path opacity=".444" fill="url(#gradient-1)" d="M 224.336 52.82 C 224.336 54.077 219.307 55.096 213.105 55.096 C 206.901 55.096 201.872 54.077 201.872 52.82 C 201.872 51.562 206.9 50.543 213.105 50.543 C 219.307 50.543 224.336 51.562 224.336 52.82 Z" style=""/>
  <path fill="#00618A" d="M 414.819 43.194 C 412.681 43.148 411.048 43.305 409.651 43.767 C 409.255 43.899 408.621 43.902 408.557 44.293 C 408.775 44.473 408.809 44.741 408.982 44.962 C 409.315 45.385 409.878 45.954 410.38 46.252 C 410.929 46.578 411.495 46.926 412.083 47.207 C 413.13 47.709 414.298 47.995 415.305 48.497 C 415.899 48.794 416.489 49.167 417.068 49.501 C 417.355 49.666 417.547 49.923 417.92 50.027 L 417.92 49.979 C 417.724 49.783 417.674 49.514 417.494 49.31 L 416.704 48.689 C 415.931 47.882 414.95 47.174 413.907 46.586 C 413.075 46.117 411.214 45.483 410.867 44.723 L 410.806 44.675 C 411.396 44.623 412.086 44.455 412.63 44.34 C 413.544 44.148 414.362 44.197 415.305 44.006 L 416.582 43.719 L 416.582 43.528 C 416.105 43.143 415.765 42.634 415.245 42.286 C 413.883 41.375 412.397 40.465 410.867 39.706 C 410.018 39.285 408.97 39.011 408.07 38.654 C 407.768 38.534 407.236 38.472 407.036 38.272 C 406.564 37.799 406.306 37.199 405.942 36.648 C 405.179 35.492 404.43 34.231 403.753 33.016 C 403.292 32.187 402.991 31.37 402.416 30.627 C 399.655 27.059 396.683 24.906 392.08 22.79 C 391.1 22.34 389.921 22.162 388.674 21.93 C 388.006 21.898 387.337 21.866 386.668 21.834 C 386.26 21.7 385.835 21.308 385.452 21.117 C 383.927 20.36 380.016 18.713 378.886 20.878 C 378.173 22.245 379.952 23.578 380.588 24.271 C 381.035 24.757 381.607 25.301 381.926 25.848 C 382.136 26.207 382.172 26.567 382.352 26.947 C 382.794 27.883 383.178 28.901 383.75 29.766 C 384.039 30.204 384.357 30.665 384.723 31.056 C 384.947 31.296 385.331 31.402 385.391 31.773 C 385.016 32.186 384.995 32.827 384.784 33.35 C 383.833 35.705 384.192 38.631 385.574 40.374 C 385.998 40.909 386.997 42.057 388.371 41.616 C 389.573 41.232 389.304 40.04 389.648 38.988 C 389.726 38.75 389.678 38.575 389.83 38.415 L 389.83 38.463 L 390.925 40.183 C 391.735 41.208 393.172 42.28 394.391 43.002 C 395.022 43.377 395.52 44.025 396.336 44.245 L 396.336 44.197 L 396.276 44.197 C 396.117 44.003 395.869 43.923 395.668 43.767 C 395.192 43.4 394.663 42.945 394.269 42.525 C 393.161 41.343 392.182 40.049 391.29 38.702 C 390.864 38.059 390.493 37.35 390.134 36.695 C 389.996 36.443 389.998 36.061 389.709 35.931 C 389.316 36.41 388.736 36.798 388.432 37.364 C 387.946 38.269 387.883 39.373 387.703 40.518 C 387.596 40.548 387.644 40.527 387.581 40.565 C 386.734 40.405 386.437 39.72 386.122 39.132 C 385.326 37.646 385.178 35.252 385.878 33.541 C 386.06 33.098 386.879 31.705 386.547 31.295 C 386.389 30.887 385.867 30.651 385.575 30.339 C 385.213 29.954 384.852 29.447 384.601 29.001 C 383.95 27.843 383.646 26.542 382.96 25.37 C 382.632 24.81 382.077 24.243 381.622 23.746 C 381.118 23.194 380.554 22.788 380.163 22.121 C 380.024 21.884 379.835 21.504 380.041 21.26 C 380.107 21.096 380.199 21.028 380.406 20.974 C 380.759 20.76 381.741 21.045 382.108 21.165 C 383.083 21.483 383.897 21.786 384.723 22.216 C 385.119 22.423 385.52 22.822 386 22.933 L 386.547 22.933 C 387.403 23.088 388.362 22.981 389.162 23.172 C 390.575 23.509 391.842 24.035 392.992 24.605 C 396.496 26.345 399.362 28.82 401.322 31.773 C 401.637 32.249 401.774 32.702 402.051 33.207 C 402.611 34.224 403.317 35.27 403.875 36.265 C 404.431 37.257 404.973 38.258 405.76 39.084 C 406.173 39.518 407.77 39.751 408.496 39.992 C 409.005 40.161 409.838 40.337 410.32 40.565 C 411.24 41.002 412.132 41.521 412.996 41.999 C 413.427 42.238 414.753 42.762 414.819 43.194 Z M 387.641 24.989 C 387.195 24.982 386.88 25.027 386.547 25.084 L 386.547 25.132 L 386.607 25.132 C 386.82 25.475 387.196 25.696 387.458 25.992 C 387.661 26.327 387.864 26.661 388.067 26.995 L 388.127 26.948 C 388.504 26.739 388.676 26.406 388.674 25.896 C 388.523 25.772 388.501 25.616 388.37 25.467 C 388.197 25.268 387.861 25.155 387.641 24.989 Z" style=""/>
  <path fill="#1565c0" d="M 247.468 25.276 L 249.95 43.222 L 243.317 37.466 C 242.333 36.612 242.069 35.315 242.658 34.221 L 247.468 25.276 Z" style=""/>
  <path fill="#42a5f5" d="M 261.795 21.198 C 261.096 20.591 260.149 20.251 259.161 20.251 C 258.545 20.251 257.938 20.384 257.395 20.637 L 247.468 25.276 L 247.468 39.879 C 247.468 40.641 247.817 41.371 248.438 41.909 L 249.95 43.222 L 268.149 43.222 L 268.149 39.633 L 273.94 31.737 L 261.795 21.198 Z" style=""/>
  <path fill="#1565c0" d="M 247.468 25.276 L 265.124 25.276 C 266.002 25.276 266.843 25.578 267.464 26.117 L 273.94 31.737 L 273.94 43.222 L 268.149 43.222 L 247.468 25.276 Z" style=""/>
  <polygon fill="#85cbf8" points="268.149 43.222 249.95 43.222 254.914 47.529 268.149 47.529" style=""/>
  <polygon fill="#40c4ff" points="302.711 24.127 288.381 35.467 292.68 38.869 311.309 24.127" style=""/>
  <polygon fill="#40c4ff" points="311.309 34.333 303.427 40.57 299.128 37.168 302.711 34.333" style=""/>
  <rect width="5.482" height="5.335" x="10.826" y="18.082" fill="#03a9f4" transform="matrix(0.784149, -0.620572, 0.805737, 0.637611, 271.77018, 35.759511)" style=""/>
  <polygon fill="#01579b" points="311.309 46.807 302.711 46.807 299.128 43.972 303.427 40.57" style=""/>
  <polygon fill="#084994" points="299.128 43.972 305.577 42.271 303.427 40.57" style=""/>
</svg>